<?xml version="1.0" encoding="utf-8"?>
<!-- Generator: Adobe Illustrator 22.0.1, SVG Export Plug-In . SVG Version: 6.00 Build 0)  -->
<svg version="1.1" id="Layer_1" xmlns="http://www.w3.org/2000/svg" xmlns:xlink="http://www.w3.org/1999/xlink" x="0px" y="0px"
	 viewBox="0 0 432 432" style="enable-background:new 0 0 432 432;" xml:space="preserve">
<style type="text/css">
	.st0{display:none;fill:#C1272D;}
	.st1{fill:#FFFFFF;}
</style>
<rect class="st0" width="432" height="430.8"/>
<path class="st1" d="M216,1.2C97.4,1.2,1.2,97.4,1.2,216S97.4,430.8,216,430.8S430.8,334.6,430.8,216S334.6,1.2,216,1.2z
	 M355.2,241.7l-4.9-0.8l1.2-7.6l-138.2,84.6L74,249.1v-46.8l145.8-90.2L352,175.9V190l-138.8,85.3L108.6,224l0.2-7.9l104,51.2
	L345,186.1v-5.8l-124.8-60.2L81,206.2v38.5l131.8,65.2l134.4-82.5l-7.2-1.2l0.8-4.9l17.1,2.9L355.2,241.7z"/>
</svg>
