<svg id="Layer_1" data-name="Layer 1" xmlns="http://www.w3.org/2000/svg" viewBox="0 0 428.89 418.3"><defs><style>.cls-1{fill:#fff;fill-rule:evenodd;}</style></defs><title>github</title><path class="cls-1" d="M216,6.85c-118.41,0-214.44,96-214.44,214.46C1.55,316,63,396.42,148.22,424.78c10.72,2,14.63-4.65,14.63-10.34,0-5.09-.18-18.57-.29-36.47-59.65,13-72.24-28.74-72.24-28.74-9.75-24.78-23.8-31.37-23.8-31.37-19.48-13.31,1.47-13,1.47-13,21.52,1.52,32.85,22.1,32.85,22.1,19.12,32.77,50.19,23.31,62.4,17.82,1.95-13.86,7.49-23.31,13.62-28.67-47.62-5.41-97.68-23.81-97.68-106,0-23.42,8.36-42.56,22.07-57.55-2.2-5.42-9.56-27.23,2.11-56.75,0,0,18-5.77,59,22a203.2,203.2,0,0,1,107.37,0c40.94-27.75,58.91-22,58.91-22,11.7,29.52,4.34,51.33,2.14,56.75,13.74,15,22,34.13,22,57.55,0,82.38-50.14,100.5-97.91,105.81,7.7,6.62,14.56,19.71,14.56,39.72,0,28.66-.27,51.79-.27,58.82,0,5.74,3.86,12.41,14.75,10.32C369.06,396.34,430.45,316,430.45,221.31,430.45,102.86,334.42,6.85,216,6.85Z" transform="translate(-1.55 -6.85)"/></svg>