<?xml version="1.0" standalone="no"?>
<!DOCTYPE svg PUBLIC "-//W3C//DTD SVG 20010904//EN"
 "http://www.w3.org/TR/2001/REC-SVG-20010904/DTD/svg10.dtd">
<svg version="1.0" xmlns="http://www.w3.org/2000/svg"
 width="700.000000pt" height="700.000000pt" viewBox="0 0 700.000000 700.000000"
 preserveAspectRatio="xMidYMid meet">
<metadata>
Created by potrace 1.14, written by Peter Selinger 2001-2017
</metadata>
<g transform="translate(0.000000,700.000000) scale(0.100000,-0.100000)"
fill="#000000" stroke="none">
<path d="M329 6240 c-2 -8 -12 -109 -24 -229 -4 -36 -8 -82 -10 -101 -10 -92
-31 -311 -41 -410 -3 -30 -7 -71 -9 -90 -2 -19 -7 -64 -10 -100 -12 -129 -15
-166 -20 -205 -3 -22 -7 -65 -10 -95 -2 -30 -7 -77 -10 -105 -3 -27 -10 -97
-15 -155 -6 -58 -12 -121 -15 -140 -2 -19 -7 -66 -10 -105 -4 -38 -8 -89 -11
-112 -2 -24 -6 -62 -8 -85 -3 -24 -8 -74 -12 -113 -3 -38 -8 -81 -9 -95 -2
-14 -6 -59 -9 -100 -4 -41 -9 -86 -11 -100 -2 -14 -6 -54 -10 -90 -3 -36 -8
-92 -12 -125 -3 -33 -7 -71 -8 -85 -1 -14 -6 -59 -10 -100 -4 -41 -9 -86 -10
-100 -1 -14 -6 -59 -10 -100 -4 -41 -9 -84 -10 -95 -1 -11 -6 -60 -10 -110 -5
-49 -9 -103 -10 -120 l0 -30 1860 -2 c1023 -1 1886 -3 1918 -3 l58 0 -5 -37
c-3 -21 -8 -67 -11 -103 -3 -36 -8 -81 -10 -100 -2 -19 -7 -64 -10 -100 -4
-36 -8 -83 -11 -105 -9 -92 -18 -182 -29 -295 -3 -25 -7 -65 -9 -90 -3 -25 -8
-72 -11 -105 -3 -33 -7 -78 -10 -100 -2 -22 -6 -69 -9 -105 -4 -36 -8 -81 -11
-100 -2 -19 -7 -64 -10 -100 -3 -36 -8 -81 -10 -100 -5 -37 -11 -100 -20 -190
-2 -30 -7 -79 -10 -107 -28 -292 -26 -271 -40 -393 l-6 -55 554 0 c306 0 557
2 560 5 3 3 8 39 11 80 4 41 9 86 11 100 3 14 7 59 10 100 4 41 8 86 10 100 3
24 13 125 20 205 3 46 15 164 20 215 10 91 32 310 40 400 3 36 8 85 11 110 2
25 7 68 10 95 3 28 7 66 9 85 2 19 7 69 11 110 3 41 8 86 9 100 2 14 6 59 9
100 4 41 9 86 11 100 2 14 7 57 10 95 3 39 8 81 10 95 2 14 6 61 10 105 3 44
8 91 10 105 2 14 6 57 9 95 4 39 8 88 11 110 2 22 7 67 10 100 6 61 11 113 20
195 9 80 14 144 20 215 3 39 8 81 10 95 2 14 7 59 10 100 4 41 9 78 11 82 2 3
-857 6 -1910 6 -1053 0 -1920 3 -1926 7 -5 3 -8 9 -6 13 2 4 7 34 10 67 11
119 16 161 21 205 10 81 14 124 20 203 4 43 8 86 10 95 1 10 6 51 10 92 4 41
8 86 10 100 2 14 6 61 10 105 4 44 9 87 11 95 1 8 3 32 3 53 l1 37 1375 0
c1302 0 1375 1 1376 18 1 9 3 26 4 37 1 11 5 54 9 95 4 41 9 91 11 110 5 46
16 153 20 210 2 25 6 63 9 85 3 22 8 69 11 105 13 138 15 166 20 200 2 19 7
69 10 110 3 41 8 91 10 110 l5 36 -1930 -1 c-1061 0 -1931 -2 -1931 -5z"/>
<path d="M5339 4051 c0 -3 -2 -15 -4 -26 -2 -11 -7 -54 -11 -95 -3 -41 -8 -82
-9 -90 -2 -8 -6 -44 -10 -80 -3 -36 -8 -76 -10 -90 -2 -14 -6 -54 -10 -90 -8
-96 -17 -180 -30 -280 -3 -19 -7 -66 -10 -103 -4 -37 -8 -76 -10 -85 -1 -9 -6
-52 -10 -94 l-7 -77 835 0 835 0 6 37 c3 20 8 69 11 107 3 39 8 87 11 109 2
21 6 66 9 100 7 79 14 150 20 206 7 59 12 108 20 205 3 44 8 91 10 105 4 26
12 104 20 197 l4 51 -829 0 c-457 0 -830 -3 -831 -7z"/>
</g>
</svg>
