<?xml version="1.0" standalone="no"?>
<!DOCTYPE svg PUBLIC "-//W3C//DTD SVG 20010904//EN"
 "http://www.w3.org/TR/2001/REC-SVG-20010904/DTD/svg10.dtd">
<svg version="1.0" xmlns="http://www.w3.org/2000/svg"
 width="687.000000pt" height="687.000000pt" viewBox="0 0 687.000000 687.000000"
 preserveAspectRatio="xMidYMid meet">
<metadata>
Created by potrace 1.14, written by Peter Selinger 2001-2017
</metadata>
<g transform="translate(0.000000,687.000000) scale(0.100000,-0.100000)"
fill="#000000" stroke="none">
<path d="M627 6420 c-154 -60 -269 -175 -331 -332 -23 -58 -36 -171 -159
-1402 -120 -1207 -132 -1344 -121 -1395 18 -85 57 -165 110 -222 57 -60 113
-94 195 -120 58 -18 120 -19 1600 -19 1459 0 1539 -1 1539 -17 -1 -10 -47
-479 -103 -1042 -115 -1137 -112 -1070 -49 -1203 38 -79 119 -158 199 -196 53
-25 71 -27 197 -30 161 -4 198 3 294 61 120 71 194 159 246 289 23 58 36 170
156 1373 71 721 131 1328 132 1350 1 54 -10 112 -33 162 -10 24 -19 46 -19 49
0 4 -21 32 -47 64 -51 63 -119 109 -206 140 -55 20 -85 20 -1603 20 l-1547 0
6 48 c3 26 35 355 73 732 37 377 70 688 74 693 3 4 472 7 1042 7 973 0 1039 2
1101 19 220 61 381 258 404 495 20 200 -71 378 -235 458 l-67 33 -1400 2
c-1347 2 -1402 1 -1448 -17z"/>
<path d="M5263 3935 c-171 -46 -331 -193 -391 -360 -101 -279 43 -573 309
-634 27 -7 270 -11 624 -11 535 0 586 1 647 19 221 61 382 257 405 495 15 144
-22 264 -112 364 -55 61 -112 97 -196 123 -57 18 -100 19 -647 18 -472 0 -597
-3 -639 -14z"/>
</g>
</svg>
