<svg width="767" height="34" viewBox="0 0 767 34" fill="none" xmlns="http://www.w3.org/2000/svg">
<mask id="mask0_10_43" style="mask-type:alpha" maskUnits="userSpaceOnUse" x="0" y="0" width="767" height="34">
<rect width="767" height="34" fill="#D9D9D9"/>
</mask>
<g mask="url(#mask0_10_43)">
<path d="M22.5 15.4L22.1705 15.7761L22.1725 15.7778L22.5 15.4ZM22.5 -38.9L22.1705 -39.2761L22.5 -38.9ZM52.8 -48L52.8028 -48.5L52.8025 -48.5L52.8 -48ZM88.8 -47.8H89.3V-48.2972L88.8028 -48.3L88.8 -47.8ZM88.8 -35V-34.5H89.3V-35H88.8ZM34.6 -29.5L34.9288 -29.1233L34.9288 -29.1233L34.6 -29.5ZM34.6 6L34.2678 6.37372L34.2712 6.37666L34.6 6ZM89.8 11.5H90.3V11H89.8V11.5ZM89.8 24.5V25H90.3V24.5H89.8ZM52.8 24C39.6698 24 29.7046 20.9823 22.8275 15.0222L22.1725 15.7778C29.2955 21.951 39.5302 25 52.8 25V24ZM22.8295 15.0239C15.9674 9.01139 12.5 0.100457 12.5 -11.8H11.5C11.5 0.299542 15.0326 9.52194 22.1705 15.7761L22.8295 15.0239ZM12.5 -11.8C12.5 -23.6328 15.9668 -32.5109 22.8295 -38.5239L22.1705 -39.2761C15.0332 -33.0225 11.5 -23.8339 11.5 -11.8H12.5ZM22.8295 -38.5239C29.7056 -44.5487 39.6689 -47.5663 52.7975 -47.5L52.8025 -48.5C39.5311 -48.567 29.2944 -45.5179 22.1705 -39.2761L22.8295 -38.5239ZM52.7972 -47.5L88.7972 -47.3L88.8028 -48.3L52.8028 -48.5L52.7972 -47.5ZM88.3 -47.8V-35H89.3V-47.8H88.3ZM88.8 -35.5H53.9V-34.5H88.8V-35.5ZM53.9 -35.5C45.1765 -35.5 38.6011 -33.6567 34.2712 -29.8767L34.9288 -29.1233C38.9989 -32.6766 45.2902 -34.5 53.9 -34.5V-35.5ZM34.2712 -29.8767C29.9201 -26.0781 27.8 -20.0101 27.8 -11.8H28.8C28.8 -19.8566 30.8799 -25.5885 34.9288 -29.1233L34.2712 -29.8767ZM27.8 -11.8C27.8 -3.58909 29.9205 2.50939 34.2678 6.3737L34.9322 5.62629C30.8795 2.02394 28.8 -3.74424 28.8 -11.8H27.8ZM34.2712 6.37666C38.6011 10.1567 45.1765 12 53.9 12V11C45.2902 11 38.9989 9.1766 34.9288 5.62334L34.2712 6.37666ZM53.9 12H89.8V11H53.9V12ZM89.3 11.5V24.5H90.3V11.5H89.3ZM89.8 24H52.8V25H89.8V24ZM93.7891 24L93.3332 23.7947L93.0155 24.5H93.7891V24ZM125.989 -47.5V-48H125.666L125.533 -47.7053L125.989 -47.5ZM150.689 -47.5L151.145 -47.7053L151.012 -48H150.689V-47.5ZM182.889 24V24.5H183.663L183.345 23.7947L182.889 24ZM165.489 24L165.033 24.2053L165.166 24.5H165.489V24ZM158.689 8.9L159.145 8.69469L159.012 8.4H158.689V8.9ZM117.989 8.9V8.4H117.666L117.533 8.69469L117.989 8.9ZM111.189 24V24.5H111.512L111.645 24.2053L111.189 24ZM123.789 -4.1L123.333 -4.30512L123.016 -3.6H123.789V-4.1ZM152.889 -4.1V-3.6H153.662L153.345 -4.30512L152.889 -4.1ZM138.989 -35L139.445 -35.2051L139.312 -35.5H138.989V-35ZM137.689 -35V-35.5H137.366L137.233 -35.2051L137.689 -35ZM94.245 24.2053L126.445 -47.2947L125.533 -47.7053L93.3332 23.7947L94.245 24.2053ZM125.989 -47H150.689V-48H125.989V-47ZM150.233 -47.2947L182.433 24.2053L183.345 23.7947L151.145 -47.7053L150.233 -47.2947ZM182.889 23.5H165.489V24.5H182.889V23.5ZM165.945 23.7947L159.145 8.69469L158.233 9.10531L165.033 24.2053L165.945 23.7947ZM158.689 8.4H117.989V9.4H158.689V8.4ZM117.533 8.69469L110.733 23.7947L111.645 24.2053L118.445 9.10531L117.533 8.69469ZM111.189 23.5H93.7891V24.5H111.189V23.5ZM123.789 -3.6H152.889V-4.6H123.789V-3.6ZM153.345 -4.30512L139.445 -35.2051L138.533 -34.7949L152.433 -3.89488L153.345 -4.30512ZM138.989 -35.5H137.689V-34.5H138.989V-35.5ZM137.233 -35.2051L123.333 -4.30512L124.245 -3.89488L138.145 -34.7949L137.233 -35.2051ZM190.902 24H190.402V24.5H190.902V24ZM190.902 -47.5V-48H190.402V-47.5H190.902ZM268.002 -41.9L267.664 -41.5317L267.667 -41.529L268.002 -41.9ZM256.902 -2.8L256.819 -3.29304L256.088 -3.16964L256.477 -2.53786L256.902 -2.8ZM273.402 24V24.5H274.297L273.828 23.7379L273.402 24ZM255.202 24L254.77 24.2514L254.915 24.5H255.202V24ZM239.902 -2.3L240.335 -2.55143L240.19 -2.8H239.902V-2.3ZM206.902 -2.3V-2.8H206.402V-2.3H206.902ZM206.902 24V24.5H207.402V24H206.902ZM206.902 -34.5V-35H206.402V-34.5H206.902ZM206.902 -15.4H206.402V-14.9012L206.901 -14.9L206.902 -15.4ZM248.902 -15.3L248.901 -14.8H248.902V-15.3ZM255.602 -17.5L255.264 -17.8687L255.257 -17.8613L255.602 -17.5ZM255.602 -32.3L255.257 -31.9387L255.265 -31.931L255.273 -31.9237L255.602 -32.3ZM191.402 24V-47.5H190.402V24H191.402ZM190.902 -47H250.802V-48H190.902V-47ZM250.802 -47C258.121 -47 263.717 -45.155 267.664 -41.5317L268.34 -42.2683C264.154 -46.1117 258.284 -48 250.802 -48V-47ZM267.667 -41.529C271.661 -37.9213 273.702 -32.4123 273.702 -24.9H274.702C274.702 -32.5878 272.61 -38.4121 268.337 -42.2711L267.667 -41.529ZM273.702 -24.9C273.702 -18.5068 272.22 -13.5661 269.315 -10.0166L270.089 -9.38338C273.185 -13.1672 274.702 -18.3599 274.702 -24.9H273.702ZM269.315 -10.0166C266.406 -6.46029 262.256 -4.21016 256.819 -3.29304L256.986 -2.30697C262.615 -3.25651 266.999 -5.60638 270.089 -9.38338L269.315 -10.0166ZM256.477 -2.53786L272.977 24.2621L273.828 23.7379L257.328 -3.06214L256.477 -2.53786ZM273.402 23.5H255.202V24.5H273.402V23.5ZM255.635 23.7486L240.335 -2.55143L239.47 -2.04858L254.77 24.2514L255.635 23.7486ZM239.902 -2.8H206.902V-1.8H239.902V-2.8ZM206.402 -2.3V24H207.402V-2.3H206.402ZM206.902 23.5H190.902V24.5H206.902V23.5ZM248.902 -35H206.902V-34H248.902V-35ZM206.402 -34.5V-15.4H207.402V-34.5H206.402ZM206.901 -14.9L248.901 -14.8L248.904 -15.8L206.904 -15.9L206.901 -14.9ZM248.902 -14.8C251.915 -14.8 254.291 -15.5537 255.948 -17.1387L255.257 -17.8613C253.847 -16.513 251.757 -15.8 248.902 -15.8V-14.8ZM255.94 -17.1314C257.691 -18.7366 258.502 -21.3749 258.502 -24.9H257.502C257.502 -21.4918 256.713 -19.1967 255.264 -17.8686L255.94 -17.1314ZM258.502 -24.9C258.502 -28.4853 257.694 -31.134 255.932 -32.6763L255.273 -31.9237C256.71 -30.666 257.502 -28.3814 257.502 -24.9H258.502ZM255.948 -32.6613C254.291 -34.2464 251.915 -35 248.902 -35V-34C251.757 -34 253.847 -33.287 255.257 -31.9387L255.948 -32.6613ZM286.215 24H285.715V24.5008L286.216 24.5L286.215 24ZM286.215 -47.3L286.213 -47.8L285.715 -47.7983V-47.3H286.215ZM346.415 -47.5V-48L346.413 -48L346.415 -47.5ZM364.015 -42.5L363.685 -42.1241L363.692 -42.1181L364.015 -42.5ZM363.215 -13.2L362.929 -13.6102L362.266 -13.1481L362.975 -12.7611L363.215 -13.2ZM369.715 -6.8L369.272 -6.56757L369.275 -6.56295L369.715 -6.8ZM366.015 18.7L366.352 19.0694L366.352 19.0691L366.015 18.7ZM348.415 23.9L348.415 23.4L348.414 23.4L348.415 23.9ZM302.215 -34.7V-35.2H301.715V-34.7H302.215ZM302.215 -18.7H301.715V-18.2H302.215V-18.7ZM302.215 -5.9V-6.4H301.715V-5.9H302.215ZM302.215 11.1H301.715V11.6H302.215V11.1ZM286.715 24V-47.3H285.715V24H286.715ZM286.217 -46.8L346.417 -47L346.413 -48L286.213 -47.8L286.217 -46.8ZM346.415 -47C354.293 -47 360.016 -45.3427 363.685 -42.1241L364.345 -42.8759C360.414 -46.324 354.404 -48 346.415 -48V-47ZM363.692 -42.1181C367.414 -38.9735 369.315 -34.2007 369.315 -27.7H370.315C370.315 -34.3993 368.349 -39.4932 364.338 -42.8819L363.692 -42.1181ZM369.315 -27.7C369.315 -21.2209 367.163 -16.5614 362.929 -13.6102L363.501 -12.7898C368.066 -15.9719 370.315 -20.9791 370.315 -27.7H369.315ZM362.975 -12.7611C365.832 -11.2029 367.923 -9.13742 369.272 -6.56759L370.158 -7.03242C368.707 -9.79592 366.464 -11.9971 363.454 -13.6389L362.975 -12.7611ZM369.275 -6.56295C370.623 -4.05909 371.315 -0.78184 371.315 3.3H372.315C372.315 -0.884831 371.607 -4.34091 370.155 -7.03705L369.275 -6.56295ZM371.315 3.3C371.315 9.93547 369.413 14.9176 365.678 18.3309L366.352 19.0691C370.35 15.4157 372.315 10.1312 372.315 3.3H371.315ZM365.678 18.3306C362.009 21.6778 356.289 23.4 348.415 23.4V24.4C356.408 24.4 362.421 22.6556 366.352 19.0694L365.678 18.3306ZM348.414 23.4L286.214 23.5L286.216 24.5L348.416 24.4L348.414 23.4ZM344.515 -35.2H302.215V-34.2H344.515V-35.2ZM301.715 -34.7V-18.7H302.715V-34.7H301.715ZM302.215 -18.2H344.515V-19.2H302.215V-18.2ZM344.515 -18.2C347.613 -18.2 350.03 -18.8968 351.675 -20.3786C353.329 -21.8692 354.115 -24.0754 354.115 -26.9H353.115C353.115 -24.258 352.384 -22.3641 351.005 -21.1214C349.616 -19.8698 347.483 -19.2 344.515 -19.2V-18.2ZM354.115 -26.9C354.115 -29.5989 353.324 -31.7078 351.665 -33.1296C350.021 -34.5388 347.608 -35.2 344.515 -35.2V-34.2C347.488 -34.2 349.625 -33.5612 351.014 -32.3704C352.389 -31.1922 353.115 -29.4011 353.115 -26.9H354.115ZM346.515 -6.4H302.215V-5.4H346.515V-6.4ZM301.715 -5.9V11.1H302.715V-5.9H301.715ZM302.215 11.6H346.515V10.6H302.215V11.6ZM346.515 11.6C349.618 11.6 352.039 10.8673 353.683 9.3134C355.333 7.75452 356.115 5.45118 356.115 2.5H355.115C355.115 5.28215 354.38 7.27881 352.996 8.5866C351.607 9.89941 349.478 10.6 346.515 10.6V11.6ZM356.115 2.5C356.115 -0.387808 355.331 -2.64259 353.679 -4.1674C352.035 -5.68524 349.616 -6.4 346.515 -6.4V-5.4C349.481 -5.4 351.612 -4.71476 353.001 -3.4326C354.382 -2.15742 355.115 -0.212194 355.115 2.5H356.115ZM382.797 24H382.297V24.5H382.797V24ZM382.797 -47.5V-48H382.297V-47.5H382.797ZM461.197 -47.5H461.697V-48H461.197V-47.5ZM461.197 -34.5V-34H461.697V-34.5H461.197ZM398.797 -34.5V-35H398.297V-34.5H398.797ZM398.797 -18.7H398.297V-18.2H398.797V-18.7ZM455.397 -18.7H455.897V-19.2H455.397V-18.7ZM455.397 -5.7V-5.2H455.897V-5.7H455.397ZM398.797 -5.7V-6.2H398.297V-5.7H398.797ZM398.797 11H398.297V11.5H398.797V11ZM461.197 11H461.697V10.5H461.197V11ZM461.197 24V24.5H461.697V24H461.197ZM383.297 24V-47.5H382.297V24H383.297ZM382.797 -47H461.197V-48H382.797V-47ZM460.697 -47.5V-34.5H461.697V-47.5H460.697ZM461.197 -35H398.797V-34H461.197V-35ZM398.297 -34.5V-18.7H399.297V-34.5H398.297ZM398.797 -18.2H455.397V-19.2H398.797V-18.2ZM454.897 -18.7V-5.7H455.897V-18.7H454.897ZM455.397 -6.2H398.797V-5.2H455.397V-6.2ZM398.297 -5.7V11H399.297V-5.7H398.297ZM398.797 11.5H461.197V10.5H398.797V11.5ZM460.697 11V24H461.697V11H460.697ZM461.197 23.5H382.797V24.5H461.197V23.5ZM472.152 24H471.652V24.5H472.152V24ZM472.152 -47.5V-48H471.652V-47.5H472.152ZM549.252 -41.9L548.914 -41.5317L548.917 -41.529L549.252 -41.9ZM538.152 -2.8L538.069 -3.29304L537.338 -3.16964L537.727 -2.53786L538.152 -2.8ZM554.652 24V24.5H555.547L555.078 23.7379L554.652 24ZM536.452 24L536.02 24.2514L536.165 24.5H536.452V24ZM521.152 -2.3L521.585 -2.55143L521.44 -2.8H521.152V-2.3ZM488.152 -2.3V-2.8H487.652V-2.3H488.152ZM488.152 24V24.5H488.652V24H488.152ZM488.152 -34.5V-35H487.652V-34.5H488.152ZM488.152 -15.4H487.652V-14.9012L488.151 -14.9L488.152 -15.4ZM530.152 -15.3L530.151 -14.8H530.152V-15.3ZM536.852 -17.5L536.514 -17.8687L536.507 -17.8613L536.852 -17.5ZM536.852 -32.3L536.507 -31.9387L536.515 -31.931L536.523 -31.9237L536.852 -32.3ZM472.652 24V-47.5H471.652V24H472.652ZM472.152 -47H532.052V-48H472.152V-47ZM532.052 -47C539.371 -47 544.967 -45.155 548.914 -41.5317L549.59 -42.2683C545.404 -46.1117 539.534 -48 532.052 -48V-47ZM548.917 -41.529C552.911 -37.9213 554.952 -32.4123 554.952 -24.9H555.952C555.952 -32.5878 553.86 -38.4121 549.587 -42.2711L548.917 -41.529ZM554.952 -24.9C554.952 -18.5068 553.47 -13.5661 550.565 -10.0166L551.339 -9.38338C554.435 -13.1672 555.952 -18.3599 555.952 -24.9H554.952ZM550.565 -10.0166C547.656 -6.46029 543.506 -4.21016 538.069 -3.29304L538.236 -2.30697C543.865 -3.25651 548.249 -5.60638 551.339 -9.38338L550.565 -10.0166ZM537.727 -2.53786L554.227 24.2621L555.078 23.7379L538.578 -3.06214L537.727 -2.53786ZM554.652 23.5H536.452V24.5H554.652V23.5ZM536.885 23.7486L521.585 -2.55143L520.72 -2.04858L536.02 24.2514L536.885 23.7486ZM521.152 -2.8H488.152V-1.8H521.152V-2.8ZM487.652 -2.3V24H488.652V-2.3H487.652ZM488.152 23.5H472.152V24.5H488.152V23.5ZM530.152 -35H488.152V-34H530.152V-35ZM487.652 -34.5V-15.4H488.652V-34.5H487.652ZM488.151 -14.9L530.151 -14.8L530.154 -15.8L488.154 -15.9L488.151 -14.9ZM530.152 -14.8C533.165 -14.8 535.541 -15.5537 537.198 -17.1387L536.507 -17.8613C535.097 -16.513 533.007 -15.8 530.152 -15.8V-14.8ZM537.19 -17.1314C538.941 -18.7366 539.752 -21.3749 539.752 -24.9H538.752C538.752 -21.4918 537.963 -19.1967 536.514 -17.8686L537.19 -17.1314ZM539.752 -24.9C539.752 -28.4853 538.944 -31.134 537.182 -32.6763L536.523 -31.9237C537.96 -30.666 538.752 -28.3814 538.752 -24.9H539.752ZM537.198 -32.6613C535.541 -34.2464 533.165 -35 530.152 -35V-34C533.007 -34 535.097 -33.287 536.507 -31.9387L537.198 -32.6613ZM567.465 24H566.965V24.5H567.465V24ZM567.465 -47.5V-48H566.965V-47.5H567.465ZM644.565 -41.9L644.227 -41.5317L644.23 -41.529L644.565 -41.9ZM633.465 -2.8L633.382 -3.29304L632.65 -3.16964L633.039 -2.53786L633.465 -2.8ZM649.965 24V24.5H650.86L650.391 23.7379L649.965 24ZM631.765 24L631.333 24.2514L631.477 24.5H631.765V24ZM616.465 -2.3L616.897 -2.55143L616.752 -2.8H616.465V-2.3ZM583.465 -2.3V-2.8H582.965V-2.3H583.465ZM583.465 24V24.5H583.965V24H583.465ZM583.465 -34.5V-35H582.965V-34.5H583.465ZM583.465 -15.4H582.965V-14.9012L583.464 -14.9L583.465 -15.4ZM625.465 -15.3L625.464 -14.8H625.465V-15.3ZM632.165 -17.5L631.827 -17.8687L631.819 -17.8613L632.165 -17.5ZM632.165 -32.3L631.819 -31.9387L631.827 -31.931L631.836 -31.9237L632.165 -32.3ZM567.965 24V-47.5H566.965V24H567.965ZM567.465 -47H627.365V-48H567.465V-47ZM627.365 -47C634.683 -47 640.28 -45.155 644.227 -41.5317L644.903 -42.2683C640.716 -46.1117 634.847 -48 627.365 -48V-47ZM644.23 -41.529C648.224 -37.9213 650.265 -32.4123 650.265 -24.9H651.265C651.265 -32.5878 649.172 -38.4121 644.9 -42.2711L644.23 -41.529ZM650.265 -24.9C650.265 -18.5068 648.782 -13.5661 645.878 -10.0166L646.652 -9.38338C649.748 -13.1672 651.265 -18.3599 651.265 -24.9H650.265ZM645.878 -10.0166C642.968 -6.46029 638.819 -4.21016 633.382 -3.29304L633.548 -2.30697C639.177 -3.25651 643.562 -5.60638 646.652 -9.38338L645.878 -10.0166ZM633.039 -2.53786L649.539 24.2621L650.391 23.7379L633.891 -3.06214L633.039 -2.53786ZM649.965 23.5H631.765V24.5H649.965V23.5ZM632.197 23.7486L616.897 -2.55143L616.033 -2.04858L631.333 24.2514L632.197 23.7486ZM616.465 -2.8H583.465V-1.8H616.465V-2.8ZM582.965 -2.3V24H583.965V-2.3H582.965ZM583.465 23.5H567.465V24.5H583.465V23.5ZM625.465 -35H583.465V-34H625.465V-35ZM582.965 -34.5V-15.4H583.965V-34.5H582.965ZM583.464 -14.9L625.464 -14.8L625.466 -15.8L583.466 -15.9L583.464 -14.9ZM625.465 -14.8C628.477 -14.8 630.853 -15.5537 632.51 -17.1387L631.819 -17.8613C630.41 -16.513 628.319 -15.8 625.465 -15.8V-14.8ZM632.503 -17.1314C634.254 -18.7366 635.065 -21.3749 635.065 -24.9H634.065C634.065 -21.4918 633.276 -19.1967 631.827 -17.8686L632.503 -17.1314ZM635.065 -24.9C635.065 -28.4853 634.257 -31.134 632.494 -32.6763L631.836 -31.9237C633.273 -30.666 634.065 -28.3814 634.065 -24.9H635.065ZM632.51 -32.6613C630.853 -34.2464 628.477 -35 625.465 -35V-34C628.319 -34 630.41 -33.287 631.819 -31.9387L632.51 -32.6613ZM656.777 24L656.321 23.7947L656.004 24.5H656.777V24ZM688.977 -47.5V-48H688.654L688.521 -47.7053L688.977 -47.5ZM713.677 -47.5L714.133 -47.7053L714.001 -48H713.677V-47.5ZM745.877 24V24.5H746.651L746.333 23.7947L745.877 24ZM728.477 24L728.021 24.2053L728.154 24.5H728.477V24ZM721.677 8.9L722.133 8.69469L722.001 8.4H721.677V8.9ZM680.977 8.9V8.4H680.654L680.521 8.69469L680.977 8.9ZM674.177 24V24.5H674.501L674.633 24.2053L674.177 24ZM686.777 -4.1L686.321 -4.30512L686.004 -3.6H686.777V-4.1ZM715.877 -4.1V-3.6H716.651L716.333 -4.30512L715.877 -4.1ZM701.977 -35L702.433 -35.2051L702.301 -35.5H701.977V-35ZM700.677 -35V-35.5H700.354L700.221 -35.2051L700.677 -35ZM657.233 24.2053L689.433 -47.2947L688.521 -47.7053L656.321 23.7947L657.233 24.2053ZM688.977 -47H713.677V-48H688.977V-47ZM713.221 -47.2947L745.421 24.2053L746.333 23.7947L714.133 -47.7053L713.221 -47.2947ZM745.877 23.5H728.477V24.5H745.877V23.5ZM728.933 23.7947L722.133 8.69469L721.221 9.10531L728.021 24.2053L728.933 23.7947ZM721.677 8.4H680.977V9.4H721.677V8.4ZM680.521 8.69469L673.721 23.7947L674.633 24.2053L681.433 9.10531L680.521 8.69469ZM674.177 23.5H656.777V24.5H674.177V23.5ZM686.777 -3.6H715.877V-4.6H686.777V-3.6ZM716.333 -4.30512L702.433 -35.2051L701.521 -34.7949L715.421 -3.89488L716.333 -4.30512ZM701.977 -35.5H700.677V-34.5H701.977V-35.5ZM700.221 -35.2051L686.321 -4.30512L687.233 -3.89488L701.133 -34.7949L700.221 -35.2051Z" fill="#1987BD"/>
</g>
</svg>
