<svg width="767" height="34" viewBox="0 0 767 34" fill="none" xmlns="http://www.w3.org/2000/svg">
<mask id="mask0_10_43" style="mask-type:alpha" maskUnits="userSpaceOnUse" x="0" y="0" width="767" height="34">
<rect width="767" height="34" fill="#D9D9D9"/>
</mask>
<g mask="url(#mask0_10_43)">
<path d="M22.5 9.4L22.1705 9.77607L22.1725 9.77784L22.5 9.4ZM22.5 -44.9L22.1705 -45.2761L22.5 -44.9ZM52.8 -54L52.8028 -54.5L52.8025 -54.5L52.8 -54ZM88.8 -53.8H89.3V-54.2972L88.8028 -54.3L88.8 -53.8ZM88.8 -41V-40.5H89.3V-41H88.8ZM34.6 -35.5L34.9288 -35.1233L34.9288 -35.1233L34.6 -35.5ZM34.6 -7.15256e-07L34.2678 0.373719L34.2712 0.376658L34.6 -7.15256e-07ZM89.8 5.5H90.3V5H89.8V5.5ZM89.8 18.5V19H90.3V18.5H89.8ZM52.8 18C39.6698 18 29.7046 14.9823 22.8275 9.02216L22.1725 9.77784C29.2955 15.951 39.5302 19 52.8 19V18ZM22.8295 9.02393C15.9674 3.01139 12.5 -5.89954 12.5 -17.8H11.5C11.5 -5.70046 15.0326 3.52194 22.1705 9.77607L22.8295 9.02393ZM12.5 -17.8C12.5 -29.6328 15.9668 -38.5109 22.8295 -44.5239L22.1705 -45.2761C15.0332 -39.0225 11.5 -29.8339 11.5 -17.8H12.5ZM22.8295 -44.5239C29.7056 -50.5487 39.6689 -53.5663 52.7975 -53.5L52.8025 -54.5C39.5311 -54.567 29.2944 -51.5179 22.1705 -45.2761L22.8295 -44.5239ZM52.7972 -53.5L88.7972 -53.3L88.8028 -54.3L52.8028 -54.5L52.7972 -53.5ZM88.3 -53.8V-41H89.3V-53.8H88.3ZM88.8 -41.5H53.9V-40.5H88.8V-41.5ZM53.9 -41.5C45.1765 -41.5 38.6011 -39.6567 34.2712 -35.8767L34.9288 -35.1233C38.9989 -38.6766 45.2902 -40.5 53.9 -40.5V-41.5ZM34.2712 -35.8767C29.9201 -32.0781 27.8 -26.0101 27.8 -17.8H28.8C28.8 -25.8566 30.8799 -31.5885 34.9288 -35.1233L34.2712 -35.8767ZM27.8 -17.8C27.8 -9.58909 29.9205 -3.49061 34.2678 0.373704L34.9322 -0.373705C30.8795 -3.97606 28.8 -9.74424 28.8 -17.8H27.8ZM34.2712 0.376658C38.6011 4.15673 45.1765 6 53.9 6V5C45.2902 5 38.9989 3.1766 34.9288 -0.376659L34.2712 0.376658ZM53.9 6H89.8V5H53.9V6ZM89.3 5.5V18.5H90.3V5.5H89.3ZM89.8 18H52.8V19H89.8V18ZM93.7891 18L93.3332 17.7947L93.0155 18.5H93.7891V18ZM125.989 -53.5V-54H125.666L125.533 -53.7053L125.989 -53.5ZM150.689 -53.5L151.145 -53.7053L151.012 -54H150.689V-53.5ZM182.889 18V18.5H183.663L183.345 17.7947L182.889 18ZM165.489 18L165.033 18.2053L165.166 18.5H165.489V18ZM158.689 2.9L159.145 2.69469L159.012 2.4H158.689V2.9ZM117.989 2.9V2.4H117.666L117.533 2.69469L117.989 2.9ZM111.189 18V18.5H111.512L111.645 18.2053L111.189 18ZM123.789 -10.1L123.333 -10.3051L123.016 -9.6H123.789V-10.1ZM152.889 -10.1V-9.6H153.662L153.345 -10.3051L152.889 -10.1ZM138.989 -41L139.445 -41.2051L139.312 -41.5H138.989V-41ZM137.689 -41V-41.5H137.366L137.233 -41.2051L137.689 -41ZM94.245 18.2053L126.445 -53.2947L125.533 -53.7053L93.3332 17.7947L94.245 18.2053ZM125.989 -53H150.689V-54H125.989V-53ZM150.233 -53.2947L182.433 18.2053L183.345 17.7947L151.145 -53.7053L150.233 -53.2947ZM182.889 17.5H165.489V18.5H182.889V17.5ZM165.945 17.7947L159.145 2.69469L158.233 3.10531L165.033 18.2053L165.945 17.7947ZM158.689 2.4H117.989V3.4H158.689V2.4ZM117.533 2.69469L110.733 17.7947L111.645 18.2053L118.445 3.10531L117.533 2.69469ZM111.189 17.5H93.7891V18.5H111.189V17.5ZM123.789 -9.6H152.889V-10.6H123.789V-9.6ZM153.345 -10.3051L139.445 -41.2051L138.533 -40.7949L152.433 -9.89488L153.345 -10.3051ZM138.989 -41.5H137.689V-40.5H138.989V-41.5ZM137.233 -41.2051L123.333 -10.3051L124.245 -9.89488L138.145 -40.7949L137.233 -41.2051ZM190.902 18H190.402V18.5H190.902V18ZM190.902 -53.5V-54H190.402V-53.5H190.902ZM268.002 -47.9L267.664 -47.5317L267.667 -47.529L268.002 -47.9ZM256.902 -8.8L256.819 -9.29304L256.088 -9.16964L256.477 -8.53786L256.902 -8.8ZM273.402 18V18.5H274.297L273.828 17.7379L273.402 18ZM255.202 18L254.77 18.2514L254.915 18.5H255.202V18ZM239.902 -8.3L240.335 -8.55143L240.19 -8.8H239.902V-8.3ZM206.902 -8.3V-8.8H206.402V-8.3H206.902ZM206.902 18V18.5H207.402V18H206.902ZM206.902 -40.5V-41H206.402V-40.5H206.902ZM206.902 -21.4H206.402V-20.9012L206.901 -20.9L206.902 -21.4ZM248.902 -21.3L248.901 -20.8H248.902V-21.3ZM255.602 -23.5L255.264 -23.8687L255.257 -23.8613L255.602 -23.5ZM255.602 -38.3L255.257 -37.9387L255.265 -37.931L255.273 -37.9237L255.602 -38.3ZM191.402 18V-53.5H190.402V18H191.402ZM190.902 -53H250.802V-54H190.902V-53ZM250.802 -53C258.121 -53 263.717 -51.155 267.664 -47.5317L268.34 -48.2683C264.154 -52.1117 258.284 -54 250.802 -54V-53ZM267.667 -47.529C271.661 -43.9213 273.702 -38.4123 273.702 -30.9H274.702C274.702 -38.5878 272.61 -44.4121 268.337 -48.2711L267.667 -47.529ZM273.702 -30.9C273.702 -24.5068 272.22 -19.5661 269.315 -16.0166L270.089 -15.3834C273.185 -19.1672 274.702 -24.3599 274.702 -30.9H273.702ZM269.315 -16.0166C266.406 -12.4603 262.256 -10.2102 256.819 -9.29304L256.986 -8.30697C262.615 -9.25651 266.999 -11.6064 270.089 -15.3834L269.315 -16.0166ZM256.477 -8.53786L272.977 18.2621L273.828 17.7379L257.328 -9.06214L256.477 -8.53786ZM273.402 17.5H255.202V18.5H273.402V17.5ZM255.635 17.7486L240.335 -8.55143L239.47 -8.04858L254.77 18.2514L255.635 17.7486ZM239.902 -8.8H206.902V-7.8H239.902V-8.8ZM206.402 -8.3V18H207.402V-8.3H206.402ZM206.902 17.5H190.902V18.5H206.902V17.5ZM248.902 -41H206.902V-40H248.902V-41ZM206.402 -40.5V-21.4H207.402V-40.5H206.402ZM206.901 -20.9L248.901 -20.8L248.904 -21.8L206.904 -21.9L206.901 -20.9ZM248.902 -20.8C251.915 -20.8 254.291 -21.5537 255.948 -23.1387L255.257 -23.8613C253.847 -22.513 251.757 -21.8 248.902 -21.8V-20.8ZM255.94 -23.1314C257.691 -24.7366 258.502 -27.3749 258.502 -30.9H257.502C257.502 -27.4918 256.713 -25.1967 255.264 -23.8686L255.94 -23.1314ZM258.502 -30.9C258.502 -34.4853 257.694 -37.134 255.932 -38.6763L255.273 -37.9237C256.71 -36.666 257.502 -34.3814 257.502 -30.9H258.502ZM255.948 -38.6613C254.291 -40.2464 251.915 -41 248.902 -41V-40C251.757 -40 253.847 -39.287 255.257 -37.9387L255.948 -38.6613ZM286.215 18H285.715V18.5008L286.216 18.5L286.215 18ZM286.215 -53.3L286.213 -53.8L285.715 -53.7983V-53.3H286.215ZM346.415 -53.5V-54L346.413 -54L346.415 -53.5ZM364.015 -48.5L363.685 -48.1241L363.692 -48.1181L364.015 -48.5ZM363.215 -19.2L362.929 -19.6102L362.266 -19.1481L362.975 -18.7611L363.215 -19.2ZM369.715 -12.8L369.272 -12.5676L369.275 -12.563L369.715 -12.8ZM366.015 12.7L366.352 13.0694L366.352 13.0691L366.015 12.7ZM348.415 17.9L348.415 17.4L348.414 17.4L348.415 17.9ZM302.215 -40.7V-41.2H301.715V-40.7H302.215ZM302.215 -24.7H301.715V-24.2H302.215V-24.7ZM302.215 -11.9V-12.4H301.715V-11.9H302.215ZM302.215 5.1H301.715V5.6H302.215V5.1ZM286.715 18V-53.3H285.715V18H286.715ZM286.217 -52.8L346.417 -53L346.413 -54L286.213 -53.8L286.217 -52.8ZM346.415 -53C354.293 -53 360.016 -51.3427 363.685 -48.1241L364.345 -48.8759C360.414 -52.324 354.404 -54 346.415 -54V-53ZM363.692 -48.1181C367.414 -44.9735 369.315 -40.2007 369.315 -33.7H370.315C370.315 -40.3993 368.349 -45.4932 364.338 -48.8819L363.692 -48.1181ZM369.315 -33.7C369.315 -27.2209 367.163 -22.5614 362.929 -19.6102L363.501 -18.7898C368.066 -21.9719 370.315 -26.9791 370.315 -33.7H369.315ZM362.975 -18.7611C365.832 -17.2029 367.923 -15.1374 369.272 -12.5676L370.158 -13.0324C368.707 -15.7959 366.464 -17.9971 363.454 -19.6389L362.975 -18.7611ZM369.275 -12.563C370.623 -10.0591 371.315 -6.78184 371.315 -2.7H372.315C372.315 -6.88483 371.607 -10.3409 370.155 -13.0371L369.275 -12.563ZM371.315 -2.7C371.315 3.93547 369.413 8.91763 365.678 12.3309L366.352 13.0691C370.35 9.41571 372.315 4.1312 372.315 -2.7H371.315ZM365.678 12.3306C362.009 15.6778 356.289 17.4 348.415 17.4V18.4C356.408 18.4 362.421 16.6556 366.352 13.0694L365.678 12.3306ZM348.414 17.4L286.214 17.5L286.216 18.5L348.416 18.4L348.414 17.4ZM344.515 -41.2H302.215V-40.2H344.515V-41.2ZM301.715 -40.7V-24.7H302.715V-40.7H301.715ZM302.215 -24.2H344.515V-25.2H302.215V-24.2ZM344.515 -24.2C347.613 -24.2 350.03 -24.8968 351.675 -26.3786C353.329 -27.8692 354.115 -30.0754 354.115 -32.9H353.115C353.115 -30.258 352.384 -28.3641 351.005 -27.1214C349.616 -25.8698 347.483 -25.2 344.515 -25.2V-24.2ZM354.115 -32.9C354.115 -35.5989 353.324 -37.7078 351.665 -39.1296C350.021 -40.5388 347.608 -41.2 344.515 -41.2V-40.2C347.488 -40.2 349.625 -39.5612 351.014 -38.3704C352.389 -37.1922 353.115 -35.4011 353.115 -32.9H354.115ZM346.515 -12.4H302.215V-11.4H346.515V-12.4ZM301.715 -11.9V5.1H302.715V-11.9H301.715ZM302.215 5.6H346.515V4.6H302.215V5.6ZM346.515 5.6C349.618 5.6 352.039 4.86726 353.683 3.3134C355.333 1.75452 356.115 -0.548817 356.115 -3.5H355.115C355.115 -0.717851 354.38 1.27881 352.996 2.5866C351.607 3.89941 349.478 4.6 346.515 4.6V5.6ZM356.115 -3.5C356.115 -6.38781 355.331 -8.64259 353.679 -10.1674C352.035 -11.6852 349.616 -12.4 346.515 -12.4V-11.4C349.481 -11.4 351.612 -10.7148 353.001 -9.4326C354.382 -8.15742 355.115 -6.21219 355.115 -3.5H356.115ZM382.797 18H382.297V18.5H382.797V18ZM382.797 -53.5V-54H382.297V-53.5H382.797ZM461.197 -53.5H461.697V-54H461.197V-53.5ZM461.197 -40.5V-40H461.697V-40.5H461.197ZM398.797 -40.5V-41H398.297V-40.5H398.797ZM398.797 -24.7H398.297V-24.2H398.797V-24.7ZM455.397 -24.7H455.897V-25.2H455.397V-24.7ZM455.397 -11.7V-11.2H455.897V-11.7H455.397ZM398.797 -11.7V-12.2H398.297V-11.7H398.797ZM398.797 5H398.297V5.5H398.797V5ZM461.197 5H461.697V4.5H461.197V5ZM461.197 18V18.5H461.697V18H461.197ZM383.297 18V-53.5H382.297V18H383.297ZM382.797 -53H461.197V-54H382.797V-53ZM460.697 -53.5V-40.5H461.697V-53.5H460.697ZM461.197 -41H398.797V-40H461.197V-41ZM398.297 -40.5V-24.7H399.297V-40.5H398.297ZM398.797 -24.2H455.397V-25.2H398.797V-24.2ZM454.897 -24.7V-11.7H455.897V-24.7H454.897ZM455.397 -12.2H398.797V-11.2H455.397V-12.2ZM398.297 -11.7V5H399.297V-11.7H398.297ZM398.797 5.5H461.197V4.5H398.797V5.5ZM460.697 5V18H461.697V5H460.697ZM461.197 17.5H382.797V18.5H461.197V17.5ZM472.152 18H471.652V18.5H472.152V18ZM472.152 -53.5V-54H471.652V-53.5H472.152ZM549.252 -47.9L548.914 -47.5317L548.917 -47.529L549.252 -47.9ZM538.152 -8.8L538.069 -9.29304L537.338 -9.16964L537.727 -8.53786L538.152 -8.8ZM554.652 18V18.5H555.547L555.078 17.7379L554.652 18ZM536.452 18L536.02 18.2514L536.165 18.5H536.452V18ZM521.152 -8.3L521.585 -8.55143L521.44 -8.8H521.152V-8.3ZM488.152 -8.3V-8.8H487.652V-8.3H488.152ZM488.152 18V18.5H488.652V18H488.152ZM488.152 -40.5V-41H487.652V-40.5H488.152ZM488.152 -21.4H487.652V-20.9012L488.151 -20.9L488.152 -21.4ZM530.152 -21.3L530.151 -20.8H530.152V-21.3ZM536.852 -23.5L536.514 -23.8687L536.507 -23.8613L536.852 -23.5ZM536.852 -38.3L536.507 -37.9387L536.515 -37.931L536.523 -37.9237L536.852 -38.3ZM472.652 18V-53.5H471.652V18H472.652ZM472.152 -53H532.052V-54H472.152V-53ZM532.052 -53C539.371 -53 544.967 -51.155 548.914 -47.5317L549.59 -48.2683C545.404 -52.1117 539.534 -54 532.052 -54V-53ZM548.917 -47.529C552.911 -43.9213 554.952 -38.4123 554.952 -30.9H555.952C555.952 -38.5878 553.86 -44.4121 549.587 -48.2711L548.917 -47.529ZM554.952 -30.9C554.952 -24.5068 553.47 -19.5661 550.565 -16.0166L551.339 -15.3834C554.435 -19.1672 555.952 -24.3599 555.952 -30.9H554.952ZM550.565 -16.0166C547.656 -12.4603 543.506 -10.2102 538.069 -9.29304L538.236 -8.30697C543.865 -9.25651 548.249 -11.6064 551.339 -15.3834L550.565 -16.0166ZM537.727 -8.53786L554.227 18.2621L555.078 17.7379L538.578 -9.06214L537.727 -8.53786ZM554.652 17.5H536.452V18.5H554.652V17.5ZM536.885 17.7486L521.585 -8.55143L520.72 -8.04858L536.02 18.2514L536.885 17.7486ZM521.152 -8.8H488.152V-7.8H521.152V-8.8ZM487.652 -8.3V18H488.652V-8.3H487.652ZM488.152 17.5H472.152V18.5H488.152V17.5ZM530.152 -41H488.152V-40H530.152V-41ZM487.652 -40.5V-21.4H488.652V-40.5H487.652ZM488.151 -20.9L530.151 -20.8L530.154 -21.8L488.154 -21.9L488.151 -20.9ZM530.152 -20.8C533.165 -20.8 535.541 -21.5537 537.198 -23.1387L536.507 -23.8613C535.097 -22.513 533.007 -21.8 530.152 -21.8V-20.8ZM537.19 -23.1314C538.941 -24.7366 539.752 -27.3749 539.752 -30.9H538.752C538.752 -27.4918 537.963 -25.1967 536.514 -23.8686L537.19 -23.1314ZM539.752 -30.9C539.752 -34.4853 538.944 -37.134 537.182 -38.6763L536.523 -37.9237C537.96 -36.666 538.752 -34.3814 538.752 -30.9H539.752ZM537.198 -38.6613C535.541 -40.2464 533.165 -41 530.152 -41V-40C533.007 -40 535.097 -39.287 536.507 -37.9387L537.198 -38.6613ZM567.465 18H566.965V18.5H567.465V18ZM567.465 -53.5V-54H566.965V-53.5H567.465ZM644.565 -47.9L644.227 -47.5317L644.23 -47.529L644.565 -47.9ZM633.465 -8.8L633.382 -9.29304L632.65 -9.16964L633.039 -8.53786L633.465 -8.8ZM649.965 18V18.5H650.86L650.391 17.7379L649.965 18ZM631.765 18L631.333 18.2514L631.477 18.5H631.765V18ZM616.465 -8.3L616.897 -8.55143L616.752 -8.8H616.465V-8.3ZM583.465 -8.3V-8.8H582.965V-8.3H583.465ZM583.465 18V18.5H583.965V18H583.465ZM583.465 -40.5V-41H582.965V-40.5H583.465ZM583.465 -21.4H582.965V-20.9012L583.464 -20.9L583.465 -21.4ZM625.465 -21.3L625.464 -20.8H625.465V-21.3ZM632.165 -23.5L631.827 -23.8687L631.819 -23.8613L632.165 -23.5ZM632.165 -38.3L631.819 -37.9387L631.827 -37.931L631.836 -37.9237L632.165 -38.3ZM567.965 18V-53.5H566.965V18H567.965ZM567.465 -53H627.365V-54H567.465V-53ZM627.365 -53C634.683 -53 640.28 -51.155 644.227 -47.5317L644.903 -48.2683C640.716 -52.1117 634.847 -54 627.365 -54V-53ZM644.23 -47.529C648.224 -43.9213 650.265 -38.4123 650.265 -30.9H651.265C651.265 -38.5878 649.172 -44.4121 644.9 -48.2711L644.23 -47.529ZM650.265 -30.9C650.265 -24.5068 648.782 -19.5661 645.878 -16.0166L646.652 -15.3834C649.748 -19.1672 651.265 -24.3599 651.265 -30.9H650.265ZM645.878 -16.0166C642.968 -12.4603 638.819 -10.2102 633.382 -9.29304L633.548 -8.30697C639.177 -9.25651 643.562 -11.6064 646.652 -15.3834L645.878 -16.0166ZM633.039 -8.53786L649.539 18.2621L650.391 17.7379L633.891 -9.06214L633.039 -8.53786ZM649.965 17.5H631.765V18.5H649.965V17.5ZM632.197 17.7486L616.897 -8.55143L616.033 -8.04858L631.333 18.2514L632.197 17.7486ZM616.465 -8.8H583.465V-7.8H616.465V-8.8ZM582.965 -8.3V18H583.965V-8.3H582.965ZM583.465 17.5H567.465V18.5H583.465V17.5ZM625.465 -41H583.465V-40H625.465V-41ZM582.965 -40.5V-21.4H583.965V-40.5H582.965ZM583.464 -20.9L625.464 -20.8L625.466 -21.8L583.466 -21.9L583.464 -20.9ZM625.465 -20.8C628.477 -20.8 630.853 -21.5537 632.51 -23.1387L631.819 -23.8613C630.41 -22.513 628.319 -21.8 625.465 -21.8V-20.8ZM632.503 -23.1314C634.254 -24.7366 635.065 -27.3749 635.065 -30.9H634.065C634.065 -27.4918 633.276 -25.1967 631.827 -23.8686L632.503 -23.1314ZM635.065 -30.9C635.065 -34.4853 634.257 -37.134 632.494 -38.6763L631.836 -37.9237C633.273 -36.666 634.065 -34.3814 634.065 -30.9H635.065ZM632.51 -38.6613C630.853 -40.2464 628.477 -41 625.465 -41V-40C628.319 -40 630.41 -39.287 631.819 -37.9387L632.51 -38.6613ZM656.777 18L656.321 17.7947L656.004 18.5H656.777V18ZM688.977 -53.5V-54H688.654L688.521 -53.7053L688.977 -53.5ZM713.677 -53.5L714.133 -53.7053L714.001 -54H713.677V-53.5ZM745.877 18V18.5H746.651L746.333 17.7947L745.877 18ZM728.477 18L728.021 18.2053L728.154 18.5H728.477V18ZM721.677 2.9L722.133 2.69469L722.001 2.4H721.677V2.9ZM680.977 2.9V2.4H680.654L680.521 2.69469L680.977 2.9ZM674.177 18V18.5H674.501L674.633 18.2053L674.177 18ZM686.777 -10.1L686.321 -10.3051L686.004 -9.6H686.777V-10.1ZM715.877 -10.1V-9.6H716.651L716.333 -10.3051L715.877 -10.1ZM701.977 -41L702.433 -41.2051L702.301 -41.5H701.977V-41ZM700.677 -41V-41.5H700.354L700.221 -41.2051L700.677 -41ZM657.233 18.2053L689.433 -53.2947L688.521 -53.7053L656.321 17.7947L657.233 18.2053ZM688.977 -53H713.677V-54H688.977V-53ZM713.221 -53.2947L745.421 18.2053L746.333 17.7947L714.133 -53.7053L713.221 -53.2947ZM745.877 17.5H728.477V18.5H745.877V17.5ZM728.933 17.7947L722.133 2.69469L721.221 3.10531L728.021 18.2053L728.933 17.7947ZM721.677 2.4H680.977V3.4H721.677V2.4ZM680.521 2.69469L673.721 17.7947L674.633 18.2053L681.433 3.10531L680.521 2.69469ZM674.177 17.5H656.777V18.5H674.177V17.5ZM686.777 -9.6H715.877V-10.6H686.777V-9.6ZM716.333 -10.3051L702.433 -41.2051L701.521 -40.7949L715.421 -9.89488L716.333 -10.3051ZM701.977 -41.5H700.677V-40.5H701.977V-41.5ZM700.221 -41.2051L686.321 -10.3051L687.233 -9.89488L701.133 -40.7949L700.221 -41.2051Z" fill="#1987BD"/>
</g>
</svg>
