<svg width="734" height="74" viewBox="0 0 734 74" fill="none" xmlns="http://www.w3.org/2000/svg">
<path d="M40.8 73.5C27.6 73.5 17.5 70.4667 10.5 64.4C3.5 58.2667 1.19209e-07 49.2 1.19209e-07 37.2C1.19209e-07 25.2667 3.5 16.2333 10.5 10.1C17.5 3.96667 27.6 0.933331 40.8 0.999997L76.8 1.19999V14H41.9C33.2333 14 26.8 15.8333 22.6 19.5C18.4 23.1667 16.3 29.0667 16.3 37.2C16.3 45.3333 18.4 51.2667 22.6 55C26.8 58.6667 33.2333 60.5 41.9 60.5H77.8V73.5H40.8ZM81.7891 73L113.989 1.5H138.689L170.889 73H153.489L146.689 57.9H105.989L99.1891 73H81.7891ZM111.789 44.9H140.889L126.989 14H125.689L111.789 44.9ZM178.902 73V1.5H238.802C246.202 1.5 251.936 3.36666 256.002 7.1C260.136 10.8333 262.202 16.5 262.202 24.1C262.202 30.5667 260.702 35.6333 257.702 39.3C254.702 42.9667 250.436 45.2667 244.902 46.2L261.402 73H243.202L227.902 46.7H194.902V73H178.902ZM236.902 14.5H194.902V33.6L236.902 33.7C239.836 33.7 242.069 32.9667 243.602 31.5C245.202 30.0333 246.002 27.5667 246.002 24.1C246.002 20.5667 245.202 18.1 243.602 16.7C242.069 15.2333 239.836 14.5 236.902 14.5ZM274.215 73V1.69999L334.415 1.5C342.348 1.5 348.215 3.16666 352.015 6.5C355.882 9.76666 357.815 14.7 357.815 21.3C357.815 27.9 355.615 32.7333 351.215 35.8C354.148 37.4 356.315 39.5333 357.715 42.2C359.115 44.8 359.815 48.1667 359.815 52.3C359.815 59.0333 357.882 64.1667 354.015 67.7C350.215 71.1667 344.348 72.9 336.415 72.9L274.215 73ZM332.515 14.3H290.215V30.3H332.515C338.582 30.3 341.615 27.5667 341.615 22.1C341.615 16.9 338.582 14.3 332.515 14.3ZM334.515 43.1H290.215V60.1H334.515C340.582 60.1 343.615 57.2333 343.615 51.5C343.615 45.9 340.582 43.1 334.515 43.1ZM370.797 73V1.5H449.197V14.5H386.797V30.3H443.397V43.3H386.797V60H449.197V73H370.797ZM460.152 73V1.5H520.052C527.452 1.5 533.186 3.36666 537.252 7.1C541.386 10.8333 543.452 16.5 543.452 24.1C543.452 30.5667 541.952 35.6333 538.952 39.3C535.952 42.9667 531.686 45.2667 526.152 46.2L542.652 73H524.452L509.152 46.7H476.152V73H460.152ZM518.152 14.5H476.152V33.6L518.152 33.7C521.086 33.7 523.319 32.9667 524.852 31.5C526.452 30.0333 527.252 27.5667 527.252 24.1C527.252 20.5667 526.452 18.1 524.852 16.7C523.319 15.2333 521.086 14.5 518.152 14.5ZM555.465 73V1.5H615.365C622.765 1.5 628.498 3.36666 632.565 7.1C636.698 10.8333 638.765 16.5 638.765 24.1C638.765 30.5667 637.265 35.6333 634.265 39.3C631.265 42.9667 626.998 45.2667 621.465 46.2L637.965 73H619.765L604.465 46.7H571.465V73H555.465ZM613.465 14.5H571.465V33.6L613.465 33.7C616.398 33.7 618.632 32.9667 620.165 31.5C621.765 30.0333 622.565 27.5667 622.565 24.1C622.565 20.5667 621.765 18.1 620.165 16.7C618.632 15.2333 616.398 14.5 613.465 14.5ZM644.777 73L676.977 1.5H701.677L733.877 73H716.477L709.677 57.9H668.977L662.177 73H644.777ZM674.777 44.9H703.877L689.977 14H688.677L674.777 44.9Z" fill="white"/>
</svg>
